<svg width="56" height="56" viewBox="0 0 56 56" fill="none" xmlns="http://www.w3.org/2000/svg">
    <path fill-rule="evenodd" clip-rule="evenodd" d="M34.0231 52.2658H21.7143L0 14.4483L6.14818 3.73242H50.1082L56 13.9985L34.0231 52.2658Z" fill="#121534"/>
    <path fill-rule="evenodd" clip-rule="evenodd" d="M43.5819 6.71484L38.0746 16.3132H29.1917L30.2675 14.4478H3.43359L7.86942 6.71982L43.5819 6.71484ZM41.2852 14.4428H52.8256L48.3867 6.71484H45.7242L41.2852 14.4428ZM23.6826 25.9079H36.804L27.8664 41.5444L25.7259 37.8098L31.4908 27.7758H22.6067L21.2833 30.0805L14.4482 18.1793H5.56968L23.4306 49.2767H32.3072L45.6794 25.9104H45.726L50.1662 18.1824H28.1364L27.06 16.3139H18.1261L23.6826 25.9079Z" fill="#FF3844"/>
</svg>
