<svg width="56" height="56" viewBox="0 0 56 56" fill="none" xmlns="http://www.w3.org/2000/svg">
    <g clip-path="url(#clip0_10_1173)">
        <path fill-rule="evenodd" clip-rule="evenodd" d="M28 56C43.464 56 56 43.464 56 28C56 12.536 43.464 0 28 0C12.536 0 0 12.536 0 28C0 43.464 12.536 56 28 56Z" fill="#079CDC"/>
        <path fill-rule="evenodd" clip-rule="evenodd" d="M33.4178 15.1617C31.6196 13.8059 25.51 9.5128 12.5187 12.3372C12.5187 12.3372 14.778 13.467 15.3429 14.5968C15.3429 14.5968 8 19.4195 8 29.8487C8 37.6093 12.4258 44.0292 19.6475 46.7043C26.8695 49.3793 35.8174 47.5069 39.5274 44.8749C42.1955 42.9819 48 37.6093 48 29.2839C48 20.2456 43.0202 13.467 41.8904 12.3372C41.8904 12.3372 45.2795 23.7262 41.8904 30.6544C38.5014 37.5826 34.5475 38.3221 34.5475 38.3221C34.5475 38.3221 36.7032 40.5817 38.5014 41.1466C38.5014 41.1466 28.8992 47.3604 18.1671 40.5817C18.1671 40.5817 17.4986 30.7527 23.7118 25.1038C23.7118 25.1038 25.4064 26.2335 26.536 28.4931C26.536 28.6802 32.3402 25.1038 33.4178 15.1617Z" fill="white"/>
    </g>
    <defs>
        <clipPath id="clip0_10_1173">
            <rect width="56" height="56" fill="white"/>
        </clipPath>
    </defs>
</svg>
