<svg width="19" height="18" viewBox="0 0 19 18" fill="none" xmlns="http://www.w3.org/2000/svg">
    <path d="M15.9344 3.4725C14.8619 2.25 12.5594 1.5 9.76938 1.5C6.97938 1.5 4.67688 2.25 3.60438 3.4725C1.81937 5.5425 1.81937 12.4725 3.60438 14.5275C4.67688 15.75 6.97938 16.5 9.76938 16.5C12.5594 16.5 14.8619 15.75 15.9344 14.5275C17.7194 12.4575 17.7194 5.5425 15.9344 3.4725ZM9.76938 5.0625C9.9548 5.0625 10.1361 5.11748 10.2902 5.2205C10.4444 5.32351 10.5646 5.46993 10.6355 5.64123C10.7065 5.81254 10.725 6.00104 10.6889 6.1829C10.6527 6.36475 10.5634 6.5318 10.4323 6.66291C10.3012 6.79402 10.1341 6.88331 9.95227 6.91949C9.77042 6.95566 9.58191 6.93709 9.41061 6.86614C9.2393 6.79518 9.09289 6.67502 8.98987 6.52085C8.88686 6.36668 8.83188 6.18542 8.83188 6C8.83188 5.75136 8.93065 5.5129 9.10646 5.33709C9.28228 5.16127 9.52073 5.0625 9.76938 5.0625ZM10.5194 13.125H9.01938C8.82046 13.125 8.6297 13.046 8.48905 12.9053C8.34839 12.7647 8.26938 12.5739 8.26938 12.375C8.26938 12.1761 8.34839 11.9853 8.48905 11.8447C8.6297 11.704 8.82046 11.625 9.01938 11.625V9.375C8.82046 9.375 8.6297 9.29598 8.48905 9.15533C8.34839 9.01468 8.26938 8.82391 8.26938 8.625C8.26938 8.42609 8.34839 8.23532 8.48905 8.09467C8.6297 7.95402 8.82046 7.875 9.01938 7.875H9.76938C9.96829 7.875 10.1591 7.95402 10.2997 8.09467C10.4404 8.23532 10.5194 8.42609 10.5194 8.625V11.625C10.7183 11.625 10.9091 11.704 11.0497 11.8447C11.1904 11.9853 11.2694 12.1761 11.2694 12.375C11.2694 12.5739 11.1904 12.7647 11.0497 12.9053C10.9091 13.046 10.7183 13.125 10.5194 13.125Z" fill="#7B8BBD"/>
</svg>
