<svg width="12" height="13" viewBox="0 0 12 13" fill="none" xmlns="http://www.w3.org/2000/svg">
    <path d="M0.823313 12.4688C0.382231 12.3948 0.0280748 12.0063 0.00047003 11.5661C-0.0114152 11.3766 0.205553 9.3599 0.25973 9.1563C0.347475 8.82655 0.256206 8.92473 3.40228 5.77584L6.36021 2.81525L8.01774 4.47236L9.67527 6.12947L6.72767 9.07556C3.86378 11.938 3.77458 12.0243 3.5867 12.1137C3.48034 12.1643 3.33297 12.218 3.25919 12.233C3.10978 12.2634 1.06918 12.498 0.996499 12.4932C0.971131 12.4915 0.893197 12.4805 0.823313 12.4688ZM8.60108 3.87621L6.95063 2.2256L7.67103 1.50409C8.40085 0.773136 8.52857 0.665224 8.77707 0.569578C8.95086 0.502685 9.30873 0.478939 9.51071 0.520899C9.84967 0.591318 9.92521 0.649826 10.8116 1.52857C11.2637 1.97673 11.6845 2.4115 11.7467 2.49472C11.9005 2.70054 11.9708 2.8975 11.9871 3.16874C12.0033 3.43793 11.9662 3.63423 11.8574 3.85571C11.7892 3.99437 11.6587 4.13882 11.0282 4.77354C10.6166 5.18784 10.2735 5.52682 10.2657 5.52682C10.2579 5.52682 9.50883 4.78404 8.60108 3.87621Z" fill="#7B8BBD"/>
</svg>
