<svg width="19" height="18" viewBox="0 0 19 18" fill="none" xmlns="http://www.w3.org/2000/svg">
    <g clip-path="url(#clip0_10_883)">
        <path d="M11.7516 1.8H7.25156C7.01287 1.8 6.78395 1.70518 6.61517 1.5364C6.44638 1.36761 6.35156 1.13869 6.35156 0.9C6.35156 0.661305 6.44638 0.432386 6.61517 0.263604C6.78395 0.0948211 7.01287 0 7.25156 0H11.7516C11.9903 0 12.2192 0.0948211 12.388 0.263604C12.5567 0.432386 12.6516 0.661305 12.6516 0.9C12.6516 1.13869 12.5567 1.36761 12.388 1.5364C12.2192 1.70518 11.9903 1.8 11.7516 1.8Z" fill="currentColor"/>
        <path d="M9.50156 2.7002C7.98854 2.7002 6.50949 3.14886 5.25145 3.98945C3.99342 4.83005 3.0129 6.02481 2.43389 7.42267C1.85488 8.82052 1.70338 10.3587 1.99856 11.8426C2.29374 13.3266 3.02233 14.6897 4.0922 15.7596C5.16207 16.8294 6.52517 17.558 8.00912 17.8532C9.49308 18.1484 11.0312 17.9969 12.4291 17.4179C13.8269 16.8389 15.0217 15.8583 15.8623 14.6003C16.7029 13.3423 17.1516 11.8632 17.1516 10.3502C17.1492 8.32202 16.3424 6.3776 14.9083 4.94346C13.4742 3.50932 11.5297 2.70258 9.50156 2.7002ZM12.0216 12.2402C11.9377 12.352 11.829 12.4427 11.7041 12.5052C11.5791 12.5677 11.4413 12.6002 11.3016 12.6002C11.1068 12.6002 10.9174 12.537 10.7616 12.4202L8.96156 11.0702C8.84979 10.9864 8.75906 10.8777 8.69658 10.7527C8.63409 10.6277 8.60156 10.4899 8.60156 10.3502V8.10019C8.60156 7.8615 8.69639 7.63258 8.86517 7.4638C9.03395 7.29502 9.26287 7.20019 9.50156 7.20019C9.74026 7.20019 9.96918 7.29502 10.138 7.4638C10.3067 7.63258 10.4016 7.8615 10.4016 8.10019V9.90019L11.8416 10.9802C11.9361 11.0511 12.0158 11.1399 12.076 11.2416C12.1362 11.3433 12.1758 11.4559 12.1925 11.5729C12.2092 11.6899 12.2027 11.8091 12.1734 11.9236C12.1441 12.038 12.0925 12.1456 12.0216 12.2402Z" fill="currentColor"/>
    </g>
    <defs>
        <clipPath id="clip0_10_883">
            <rect width="18" height="18" fill="currentColor" transform="translate(0.5)"/>
        </clipPath>
    </defs>
</svg>
